<svg width="24" height="24" viewBox="0 0 24 24" fill="none" xmlns="http://www.w3.org/2000/svg">
    <path d="M12 3C7.03 3 3 7.03 3 12C3 16.97 7.03 21 12 21C16.97 21 21 16.97 21 12C21 7.03 16.97 3 12 3ZM12 19C8.13 19 5 15.87 5 12C5 8.13 8.13 5 12 5C15.87 5 19 8.13 19 12C19 15.87 15.87 19 12 19Z" fill="currentColor"/>
    <path d="M15.9 8.1L14.5 9.5L12 7L9.5 9.5L8.1 8.1L12 4.2L15.9 8.1Z" fill="currentColor"/>
    <path d="M8.1 15.9L9.5 14.5L12 17L14.5 14.5L15.9 15.9L12 19.8L8.1 15.9Z" fill="currentColor"/>
</svg>
