<svg xmlns="http://www.w3.org/2000/svg" viewBox="0 0 512 512">
  <path fill="#DA291C" d="M256 0C114.6 0 0 114.6 0 256s114.6 256 256 256 256-114.6 256-256S397.4 0 256 0z"/>
  <path fill="#FFF" d="M256 48c114.9 0 208 93.1 208 208S370.9 464 256 464 48 370.9 48 256 141.1 48 256 48z"/>
  <path fill="#DA291C" d="M256 96c88.4 0 160 71.6 160 160s-71.6 160-160 160S96 344.4 96 256 167.6 96 256 96z"/>
  <path fill="#FFF" d="M256 144c61.9 0 112 50.1 112 112s-50.1 112-112 112-112-50.1-112-112 50.1-112 112-112z"/>
  <path fill="#000" d="M256 192c35.3 0 64 28.7 64 64s-28.7 64-64 64-64-28.7-64-64 28.7-64 64-64z"/>
  <path fill="#FFF" d="M256 208c26.5 0 48 21.5 48 48s-21.5 48-48 48-48-21.5-48-48 21.5-48 48-48z"/>
  <path fill="#DA291C" d="M256 224c17.7 0 32 14.3 32 32s-14.3 32-32 32-32-14.3-32-32 14.3-32 32-32z"/>
</svg>
