<?xml version="1.0" encoding="UTF-8"?>
<svg width="100" height="100" viewBox="0 0 100 100" fill="none" xmlns="http://www.w3.org/2000/svg">
    <!-- Main Shield -->
    <path d="M50 5L90 20V45C90 65 75 85 50 95C25 85 10 65 10 45V20L50 5Z" fill="#FF4C29"/>
    
    <!-- Inner Shield Border -->
    <path d="M50 15L80 27V45C80 60 65 75 50 85C35 75 20 60 20 45V27L50 15Z" stroke="#082032" stroke-width="2" fill="none"/>
    
    <!-- Eagle Silhouette -->
    <path d="M50 35L65 45L60 55L50 50L40 55L35 45L50 35Z" fill="#082032"/>
    
    <!-- Stars -->
    <circle cx="35" cy="30" r="2" fill="#082032"/>
    <circle cx="65" cy="30" r="2" fill="#082032"/>
    <circle cx="50" cy="25" r="2" fill="#082032"/>
</svg> 