<svg xmlns="http://www.w3.org/2000/svg" viewBox="0 0 150 90">
  <path fill="#C8102E" d="M140.1 48.5c0 21.4-17.3 38.7-38.7 38.7H48.7C27.3 87.2 10 69.9 10 48.5V41c0-21.4 17.3-38.7 38.7-38.7h52.7c21.4 0 38.7 17.3 38.7 38.7v7.5z"/>
  <path fill="#FFFFFF" d="M114.1 48.5c0 7-5.7 12.7-12.7 12.7H48.7c-7 0-12.7-5.7-12.7-12.7V41c0-7 5.7-12.7 12.7-12.7h52.7c7 0 12.7 5.7 12.7 12.7v7.5z"/>
  <path fill="#C8102E" d="M82.5 52.2l-4.8-1.6 4.8-1.6c.3-.1.5-.4.4-.7l-.8-2.3c-.1-.3-.4-.5-.7-.4l-4.8 1.6.8-4.9c0-.3-.2-.6-.5-.7l-2.4-.4c-.3 0-.6.2-.7.5l-.8 4.9-1.6-4.8c-.1-.3-.4-.5-.7-.4l-2.3.8c-.3.1-.5.4-.4.7l1.6 4.8-4.9-.8c-.3 0-.6.2-.7.5l-.4 2.4c0 .3.2.6.5.7l4.9.8-4.8 1.6c-.3.1-.5.4-.4.7l.8 2.3c.1.3.4.5.7.4l4.8-1.6-.8 4.9c0 .3.2.6.5.7l2.4.4c.3 0 .6-.2.7-.5l.8-4.9 1.6 4.8c.1.3.4.5.7.4l2.3-.8c.3-.1.5-.4.4-.7l-1.6-4.8 4.9.8c.3 0 .6-.2.7-.5l.4-2.4c0-.3-.2-.6-.5-.7z"/>
</svg>
