<?xml version="1.0" encoding="UTF-8"?>
<svg width="100" height="100" viewBox="0 0 100 100" fill="none" xmlns="http://www.w3.org/2000/svg">
    <!-- Main Shield -->
    <path d="M50 5L90 20V45C90 65 75 85 50 95C25 85 10 65 10 45V20L50 5Z" fill="#FF4C29"/>
    
    <!-- Inner Shield -->
    <path d="M50 15L80 27V45C80 60 65 75 50 85C35 75 20 60 20 45V27L50 15Z" stroke="#082032" stroke-width="2" fill="none"/>
    
    <!-- Kabaddi Player Silhouette -->
    <path d="M40 35C40 35 45 40 50 45C55 40 60 35 60 35" stroke="#082032" stroke-width="3" stroke-linecap="round"/>
    <circle cx="50" cy="30" r="8" fill="#082032"/> <!-- Head -->
    <path d="M45 45L40 60L50 55L60 60L55 45" fill="#082032"/> <!-- Body -->
    
    <!-- Text -->
    <text x="50" y="75" text-anchor="middle" fill="#FFFFFF" font-size="20" font-weight="bold">PKL</text>
    
    <!-- Stars -->
    <path d="M25 25L30 35L25 30L20 35L25 25Z" fill="#082032"/>
    <path d="M75 25L80 35L75 30L70 35L75 25Z" fill="#082032"/>
</svg> 