<?xml version="1.0" encoding="UTF-8"?>
<svg width="100" height="100" viewBox="0 0 100 100" fill="none" xmlns="http://www.w3.org/2000/svg">
    <!-- Crown -->
    <path d="M20 40L35 30L50 40L65 30L80 40L70 60H30L20 40Z" fill="#FF4C29"/>
    
    <!-- Lion Head -->
    <path d="M40 50C40 45 45 40 50 40C55 40 60 45 60 50C60 55 55 60 50 60C45 60 40 55 40 50Z" fill="#082032"/>
    
    <!-- Text Circle -->
    <circle cx="50" cy="50" r="45" stroke="#082032" stroke-width="2" fill="none"/>
    
    <!-- Stars -->
    <path d="M45 20L47 25L42 23L45 20Z" fill="#082032"/>
    <path d="M55 20L53 25L58 23L55 20Z" fill="#082032"/>
</svg> 