<?xml version="1.0" encoding="UTF-8"?>
<svg width="100" height="100" viewBox="0 0 100 100" fill="none" xmlns="http://www.w3.org/2000/svg">
    <!-- Main Shield -->
    <path d="M50 5L90 20V45C90 65 75 85 50 95C25 85 10 65 10 45V20L50 5Z" fill="#FF4C29"/>
    
    <!-- Inner Shield -->
    <path d="M50 15L80 27V45C80 60 65 75 50 85C35 75 20 60 20 45V27L50 15Z" stroke="#082032" stroke-width="2" fill="none"/>
    
    <!-- Lightning Bolt -->
    <path d="M45 25L60 45L40 55L55 75" stroke="#082032" stroke-width="3" stroke-linecap="round"/>
    
    <!-- Text -->
    <text x="50" y="50" text-anchor="middle" fill="#FFFFFF" font-size="16" font-weight="bold">SKL</text>
    
    <!-- Stars -->
    <path d="M30 35L35 45L30 40L25 45L30 35Z" fill="#082032"/>
    <path d="M70 35L75 45L70 40L65 45L70 35Z" fill="#082032"/>
</svg> 