<?xml version="1.0" encoding="UTF-8"?>
<svg width="100" height="100" viewBox="0 0 100 100" fill="none" xmlns="http://www.w3.org/2000/svg">
    <!-- Trophy Base -->
    <path d="M35 80H65V85H35V80Z" fill="#082032"/>
    
    <!-- Trophy Body -->
    <path d="M40 30V80H60V30C60 20 65 15 70 15H30C35 15 40 20 40 30Z" fill="#FF4C29"/>
    
    <!-- Trophy Handles -->
    <path d="M30 15C20 15 15 25 20 35C25 45 35 40 40 30" stroke="#082032" stroke-width="2" fill="none"/>
    <path d="M70 15C80 15 85 25 80 35C75 45 65 40 60 30" stroke="#082032" stroke-width="2" fill="none"/>
    
    <!-- Globe on Top -->
    <circle cx="50" cy="15" r="10" fill="#082032"/>
    <path d="M45 10C50 5 55 10 55 15C55 20 50 25 45 20" stroke="#FF4C29" stroke-width="1" fill="none"/>
    
    <!-- Text -->
    <text x="50" y="60" text-anchor="middle" fill="#FFFFFF" font-size="16" font-weight="bold">WC</text>
</svg> 