<svg xmlns="http://www.w3.org/2000/svg" viewBox="0 0 500 500">
  <g id="bengal-warriors">
    <path fill="#FF6B00" d="M250 50c110.5 0 200 89.5 200 200s-89.5 200-200 200S50 360.5 50 250 139.5 50 250 50z"/>
    <path fill="#000" d="M250 100c-82.8 0-150 67.2-150 150s67.2 150 150 150 150-67.2 150-150S332.8 100 250 100zm0 270c-66.3 0-120-53.7-120-120s53.7-120 120-120 120 53.7 120 120-53.7 120-120 120z"/>
    <path fill="#FFF" d="M250 130c-66.3 0-120 53.7-120 120s53.7 120 120 120 120-53.7 120-120-53.7-120-120-120zm0 210c-49.7 0-90-40.3-90-90s40.3-90 90-90 90 40.3 90 90-40.3 90-90 90z"/>
    <path fill="#FF6B00" d="M250 170c-44.2 0-80 35.8-80 80s35.8 80 80 80 80-35.8 80-80-35.8-80-80-80zm0 140c-33.1 0-60-26.9-60-60s26.9-60 60-60 60 26.9 60 60-26.9 60-60 60z"/>
    <circle fill="#000" cx="250" cy="250" r="40"/>
  </g>
</svg>
