<svg xmlns="http://www.w3.org/2000/svg" viewBox="0 0 300 300">
  <g>
    <path fill="#006838" d="M150 0c82.8 0 150 67.2 150 150s-67.2 150-150 150S0 232.8 0 150 67.2 0 150 0"/>
    <path fill="#FFFFFF" d="M150 20c71.8 0 130 58.2 130 130s-58.2 130-130 130S20 221.8 20 150 78.2 20 150 20"/>
    <path fill="#006838" d="M150 40c60.8 0 110 49.2 110 110s-49.2 110-110 110S40 210.8 40 150 89.2 40 150 40"/>
    <path fill="#FFFFFF" d="M90 120l30-20 30 20-30 20-30-20zm60 0l30-20 30 20-30 20-30-20z"/>
    <path fill="#FFFFFF" d="M120 180c0-16.6 13.4-30 30-30s30 13.4 30 30-13.4 30-30 30-30-13.4-30-30"/>
  </g>
</svg>
